<?xml version="1.0" encoding="us-ascii" standalone="no"?><svg xmlns="http://www.w3.org/2000/svg" xmlns:xlink="http://www.w3.org/1999/xlink" contentStyleType="text/css" height="2166px" preserveAspectRatio="none" style="width:1360px;height:2166px;background:#FFFFFF;" version="1.1" viewBox="0 0 1360 2166" width="1360px" zoomAndPan="magnify"><defs/><g><text fill="#000000" font-family="sans-serif" font-size="14" font-weight="bold" lengthAdjust="spacing" textLength="375" x="491" y="34.5332">Diagram aktywnosci - analiza i ranking CV z uzyciem AI</text><ellipse cx="970.0938" cy="58.6094" fill="#222222" rx="10" ry="10" style="stroke:#222222;stroke-width:1.0;"/><rect fill="none" height="139.7969" style="stroke:#000000;stroke-width:1.5;" width="187" x="876.5938" y="78.6094"/><path d="M941.5938,78.6094 L941.5938,89.2188 L931.5938,99.2188 L876.5938,99.2188 " fill="none" style="stroke:#000000;stroke-width:1.5;"/><text fill="#000000" font-family="sans-serif" font-size="14" lengthAdjust="spacing" textLength="55" x="879.5938" y="94.1426">Rekruter</text><rect fill="#F1F1F1" height="35.0938" rx="12.5" ry="12.5" style="stroke:#181818;stroke-width:0.5;" width="167" x="886.5938" y="116.2188"/><text fill="#000000" font-family="sans-serif" font-size="12" lengthAdjust="spacing" textLength="147" x="896.5938" y="138.6758">Wybiera oferte rekrutacyjna</text><rect fill="#F1F1F1" height="35.0938" rx="12.5" ry="12.5" style="stroke:#181818;stroke-width:0.5;" width="142" x="899.0938" y="171.3125"/><text fill="#000000" font-family="sans-serif" font-size="12" lengthAdjust="spacing" textLength="122" x="909.0938" y="193.7695">Uruchamia analize CV</text><rect fill="none" height="84.7031" style="stroke:#000000;stroke-width:1.5;" width="265" x="837.5938" y="228.4063"/><path d="M893.5938,228.4063 L893.5938,239.0156 L883.5938,249.0156 L837.5938,249.0156 " fill="none" style="stroke:#000000;stroke-width:1.5;"/><text fill="#000000" font-family="sans-serif" font-size="14" lengthAdjust="spacing" textLength="46" x="840.5938" y="243.9395">System</text><rect fill="#F1F1F1" height="35.0938" rx="12.5" ry="12.5" style="stroke:#181818;stroke-width:0.5;" width="245" x="847.5938" y="266.0156"/><text fill="#000000" font-family="sans-serif" font-size="12" lengthAdjust="spacing" textLength="225" x="857.5938" y="288.4727">Pobiera oferte, kryteria selekcji i aplikacje</text><polygon fill="#F1F1F1" points="891.5938,333.1094,1048.5938,333.1094,1060.5938,345.1094,1048.5938,357.1094,891.5938,357.1094,879.5938,345.1094,891.5938,333.1094" style="stroke:#181818;stroke-width:0.5;"/><text fill="#000000" font-family="sans-serif" font-size="11" lengthAdjust="spacing" textLength="157" x="891.5938" y="349.6104">Czy istnieja aplikacje do analizy?</text><text fill="#000000" font-family="sans-serif" font-size="11" lengthAdjust="spacing" textLength="14" x="865.5938" y="342.6924">tak</text><text fill="#000000" font-family="sans-serif" font-size="11" lengthAdjust="spacing" textLength="14" x="1060.5938" y="342.6924">nie</text><rect fill="none" height="139.7969" style="stroke:#000000;stroke-width:1.5;" width="214" x="596.1875" y="428.9453"/><path d="M652.1875,428.9453 L652.1875,439.5547 L642.1875,449.5547 L596.1875,449.5547 " fill="none" style="stroke:#000000;stroke-width:1.5;"/><text fill="#000000" font-family="sans-serif" font-size="14" lengthAdjust="spacing" textLength="46" x="599.1875" y="444.4785">System</text><rect fill="#F1F1F1" height="35.0938" rx="12.5" ry="12.5" style="stroke:#181818;stroke-width:0.5;" width="141" x="632.6875" y="466.5547"/><text fill="#000000" font-family="sans-serif" font-size="12" lengthAdjust="spacing" textLength="121" x="642.6875" y="489.0117">Pobiera CV kandydata</text><rect fill="#F1F1F1" height="35.0938" rx="12.5" ry="12.5" style="stroke:#181818;stroke-width:0.5;" width="194" x="606.1875" y="521.6484"/><text fill="#000000" font-family="sans-serif" font-size="12" lengthAdjust="spacing" textLength="174" x="616.1875" y="544.1055">Odczytuje i normalizuje tresc CV</text><polygon fill="#F1F1F1" points="627.1875,588.7422,779.1875,588.7422,791.1875,600.7422,779.1875,612.7422,627.1875,612.7422,615.1875,600.7422,627.1875,588.7422" style="stroke:#181818;stroke-width:0.5;"/><text fill="#000000" font-family="sans-serif" font-size="11" lengthAdjust="spacing" textLength="152" x="627.1875" y="605.2432">Czy CV odczytano poprawnie?</text><text fill="#000000" font-family="sans-serif" font-size="11" lengthAdjust="spacing" textLength="14" x="601.1875" y="598.3252">tak</text><text fill="#000000" font-family="sans-serif" font-size="11" lengthAdjust="spacing" textLength="14" x="791.1875" y="598.3252">nie</text><rect fill="none" height="146.7969" style="stroke:#000000;stroke-width:1.5;" width="212" x="358.375" y="622.7422"/><path d="M414.375,622.7422 L414.375,633.3516 L404.375,643.3516 L358.375,643.3516 " fill="none" style="stroke:#000000;stroke-width:1.5;"/><text fill="#000000" font-family="sans-serif" font-size="14" lengthAdjust="spacing" textLength="46" x="361.375" y="638.2754">System</text><rect fill="#F1F1F1" height="35.0938" rx="12.5" ry="12.5" style="stroke:#181818;stroke-width:0.5;" width="148" x="390.375" y="660.3516"/><text fill="#000000" font-family="sans-serif" font-size="12" lengthAdjust="spacing" textLength="128" x="400.375" y="682.8086">Buduje profil kandydata</text><rect fill="#F1F1F1" height="35.0938" rx="12.5" ry="12.5" style="stroke:#181818;stroke-width:0.5;" width="192" x="368.375" y="722.4453"/><text fill="#000000" font-family="sans-serif" font-size="12" lengthAdjust="spacing" textLength="172" x="378.375" y="744.9023">Sprawdza dostepnosc uslugi AI</text><polygon fill="#F1F1F1" points="393.875,789.5391,534.875,789.5391,546.875,801.5391,534.875,813.5391,393.875,813.5391,381.875,801.5391,393.875,789.5391" style="stroke:#181818;stroke-width:0.5;"/><text fill="#000000" font-family="sans-serif" font-size="11" lengthAdjust="spacing" textLength="141" x="393.875" y="806.04">Czy usluga AI jest dostepna?</text><text fill="#000000" font-family="sans-serif" font-size="11" lengthAdjust="spacing" textLength="14" x="367.875" y="799.1221">tak</text><text fill="#000000" font-family="sans-serif" font-size="11" lengthAdjust="spacing" textLength="14" x="546.875" y="799.1221">nie</text><rect fill="none" height="201.8906" style="stroke:#000000;stroke-width:1.5;" width="242" x="158.75" y="823.5391"/><path d="M222.75,823.5391 L222.75,834.1484 L212.75,844.1484 L158.75,844.1484 " fill="none" style="stroke:#000000;stroke-width:1.5;"/><text fill="#000000" font-family="sans-serif" font-size="14" lengthAdjust="spacing" textLength="54" x="161.75" y="839.0723">Modul AI</text><rect fill="#F1F1F1" height="35.0938" rx="12.5" ry="12.5" style="stroke:#181818;stroke-width:0.5;" width="205" x="177.25" y="861.1484"/><text fill="#000000" font-family="sans-serif" font-size="12" lengthAdjust="spacing" textLength="185" x="187.25" y="883.6055">Porownuje profil z kryteriami oferty</text><rect fill="#F1F1F1" height="35.0938" rx="12.5" ry="12.5" style="stroke:#181818;stroke-width:0.5;" width="175" x="192.25" y="916.2422"/><text fill="#000000" font-family="sans-serif" font-size="12" lengthAdjust="spacing" textLength="155" x="202.25" y="938.6992">Wylicza ocene dopasowania</text><rect fill="#F1F1F1" height="35.0938" rx="12.5" ry="12.5" style="stroke:#181818;stroke-width:0.5;" width="222" x="168.75" y="978.3359"/><text fill="#000000" font-family="sans-serif" font-size="12" lengthAdjust="spacing" textLength="202" x="178.75" y="1000.793">Tworzy rekomendacje i uzasadnienie</text><rect fill="none" height="84.7031" style="stroke:#000000;stroke-width:1.5;" width="161" x="199.25" y="1035.4297"/><path d="M255.25,1035.4297 L255.25,1046.0391 L245.25,1056.0391 L199.25,1056.0391 " fill="none" style="stroke:#000000;stroke-width:1.5;"/><text fill="#000000" font-family="sans-serif" font-size="14" lengthAdjust="spacing" textLength="46" x="202.25" y="1050.9629">System</text><rect fill="#F1F1F1" height="35.0938" rx="12.5" ry="12.5" style="stroke:#181818;stroke-width:0.5;" width="141" x="209.25" y="1073.0391"/><text fill="#000000" font-family="sans-serif" font-size="12" lengthAdjust="spacing" textLength="121" x="219.25" y="1095.4961">Zapisuje wynik analizy</text><polygon fill="#F1F1F1" points="201.25,1140.1328,358.25,1140.1328,370.25,1152.1328,358.25,1164.1328,201.25,1164.1328,189.25,1152.1328,201.25,1140.1328" style="stroke:#181818;stroke-width:0.5;"/><text fill="#000000" font-family="sans-serif" font-size="11" lengthAdjust="spacing" textLength="157" x="201.25" y="1156.6338">Czy poziom pewnosci jest niski?</text><text fill="#000000" font-family="sans-serif" font-size="11" lengthAdjust="spacing" textLength="14" x="175.25" y="1149.7158">tak</text><text fill="#000000" font-family="sans-serif" font-size="11" lengthAdjust="spacing" textLength="14" x="370.25" y="1149.7158">nie</text><rect fill="none" height="84.7031" style="stroke:#000000;stroke-width:1.5;" width="247" x="38" y="1174.1328"/><path d="M94,1174.1328 L94,1184.7422 L84,1194.7422 L38,1194.7422 " fill="none" style="stroke:#000000;stroke-width:1.5;"/><text fill="#000000" font-family="sans-serif" font-size="14" lengthAdjust="spacing" textLength="46" x="41" y="1189.666">System</text><rect fill="#F1F1F1" height="35.0938" rx="12.5" ry="12.5" style="stroke:#181818;stroke-width:0.5;" width="227" x="48" y="1211.7422"/><text fill="#000000" font-family="sans-serif" font-size="12" lengthAdjust="spacing" textLength="207" x="58" y="1234.1992">Oznacza wynik do weryfikacji rekrutera</text><rect fill="none" height="84.7031" style="stroke:#000000;stroke-width:1.5;" width="186" x="305" y="1174.1328"/><path d="M361,1174.1328 L361,1184.7422 L351,1194.7422 L305,1194.7422 " fill="none" style="stroke:#000000;stroke-width:1.5;"/><text fill="#000000" font-family="sans-serif" font-size="14" lengthAdjust="spacing" textLength="46" x="308" y="1189.666">System</text><rect fill="#F1F1F1" height="35.0938" rx="12.5" ry="12.5" style="stroke:#181818;stroke-width:0.5;" width="166" x="315" y="1211.7422"/><text fill="#000000" font-family="sans-serif" font-size="12" lengthAdjust="spacing" textLength="146" x="325" y="1234.1992">Oznacza wynik jako gotowy</text><polygon fill="#F1F1F1" points="279.75,1264.8359,291.75,1276.8359,279.75,1288.8359,267.75,1276.8359,279.75,1264.8359" style="stroke:#181818;stroke-width:0.5;"/><rect fill="none" height="139.7969" style="stroke:#000000;stroke-width:1.5;" width="256" x="521" y="823.5391"/><path d="M577,823.5391 L577,834.1484 L567,844.1484 L521,844.1484 " fill="none" style="stroke:#000000;stroke-width:1.5;"/><text fill="#000000" font-family="sans-serif" font-size="14" lengthAdjust="spacing" textLength="46" x="524" y="839.0723">System</text><rect fill="#F1F1F1" height="35.0938" rx="12.5" ry="12.5" style="stroke:#181818;stroke-width:0.5;" width="217" x="540.5" y="861.1484"/><text fill="#000000" font-family="sans-serif" font-size="12" lengthAdjust="spacing" textLength="197" x="550.5" y="883.6055">Oznacza aplikacje do analizy recznej</text><rect fill="#F1F1F1" height="35.0938" rx="12.5" ry="12.5" style="stroke:#181818;stroke-width:0.5;" width="236" x="531" y="916.2422"/><text fill="#000000" font-family="sans-serif" font-size="12" lengthAdjust="spacing" textLength="216" x="541" y="938.6992">Zapisuje mozliwosc ponowienia analizy</text><polygon fill="#F1F1F1" points="464.375,1294.8359,476.375,1306.8359,464.375,1318.8359,452.375,1306.8359,464.375,1294.8359" style="stroke:#181818;stroke-width:0.5;"/><rect fill="none" height="84.7031" style="stroke:#000000;stroke-width:1.5;" width="270" x="807" y="622.7422"/><path d="M863,622.7422 L863,633.3516 L853,643.3516 L807,643.3516 " fill="none" style="stroke:#000000;stroke-width:1.5;"/><text fill="#000000" font-family="sans-serif" font-size="14" lengthAdjust="spacing" textLength="46" x="810" y="638.2754">System</text><rect fill="#F1F1F1" height="35.0938" rx="12.5" ry="12.5" style="stroke:#181818;stroke-width:0.5;" width="250" x="817" y="660.3516"/><text fill="#000000" font-family="sans-serif" font-size="12" lengthAdjust="spacing" textLength="230" x="827" y="682.8086">Oznacza aplikacje do recznego odczytu CV</text><polygon fill="#F1F1F1" points="703.1875,1324.8359,715.1875,1336.8359,703.1875,1348.8359,691.1875,1336.8359,703.1875,1324.8359" style="stroke:#181818;stroke-width:0.5;"/><polygon fill="#F1F1F1" points="650.1875,367.1094,756.1875,367.1094,768.1875,379.1094,756.1875,391.1094,650.1875,391.1094,638.1875,379.1094,650.1875,367.1094" style="stroke:#181818;stroke-width:0.5;"/><text fill="#000000" font-family="sans-serif" font-size="11" lengthAdjust="spacing" textLength="14" x="707.1875" y="402.5283">tak</text><text fill="#000000" font-family="sans-serif" font-size="11" lengthAdjust="spacing" textLength="106" x="650.1875" y="383.6104">Jest kolejna aplikacja?</text><text fill="#000000" font-family="sans-serif" font-size="11" lengthAdjust="spacing" textLength="14" x="624.1875" y="376.6924">nie</text><rect fill="none" height="194.8906" style="stroke:#000000;stroke-width:1.5;" width="271" x="567.6875" y="1380.8359"/><path d="M623.6875,1380.8359 L623.6875,1391.4453 L613.6875,1401.4453 L567.6875,1401.4453 " fill="none" style="stroke:#000000;stroke-width:1.5;"/><text fill="#000000" font-family="sans-serif" font-size="14" lengthAdjust="spacing" textLength="46" x="570.6875" y="1396.3691">System</text><rect fill="#F1F1F1" height="35.0938" rx="12.5" ry="12.5" style="stroke:#181818;stroke-width:0.5;" width="251" x="577.6875" y="1418.4453"/><text fill="#000000" font-family="sans-serif" font-size="12" lengthAdjust="spacing" textLength="231" x="587.6875" y="1440.9023">Sortuje wyniki wedlug oceny dopasowania</text><rect fill="#F1F1F1" height="35.0938" rx="12.5" ry="12.5" style="stroke:#181818;stroke-width:0.5;" width="221" x="592.6875" y="1473.5391"/><text fill="#000000" font-family="sans-serif" font-size="12" lengthAdjust="spacing" textLength="201" x="602.6875" y="1495.9961">Tworzy ranking kandydatow dla oferty</text><rect fill="#F1F1F1" height="35.0938" rx="12.5" ry="12.5" style="stroke:#181818;stroke-width:0.5;" width="112" x="647.1875" y="1528.6328"/><text fill="#000000" font-family="sans-serif" font-size="12" lengthAdjust="spacing" textLength="92" x="657.1875" y="1551.0898">Zapisuje ranking</text><rect fill="none" height="139.7969" style="stroke:#000000;stroke-width:1.5;" width="244" x="581.1875" y="1585.7266"/><path d="M646.1875,1585.7266 L646.1875,1596.3359 L636.1875,1606.3359 L581.1875,1606.3359 " fill="none" style="stroke:#000000;stroke-width:1.5;"/><text fill="#000000" font-family="sans-serif" font-size="14" lengthAdjust="spacing" textLength="55" x="584.1875" y="1601.2598">Rekruter</text><rect fill="#F1F1F1" height="35.0938" rx="12.5" ry="12.5" style="stroke:#181818;stroke-width:0.5;" width="224" x="591.1875" y="1623.3359"/><text fill="#000000" font-family="sans-serif" font-size="12" lengthAdjust="spacing" textLength="204" x="601.1875" y="1645.793">Przeglada ranking i oznaczenia ryzyka</text><rect fill="#F1F1F1" height="35.0938" rx="12.5" ry="12.5" style="stroke:#181818;stroke-width:0.5;" width="171" x="617.6875" y="1678.4297"/><text fill="#000000" font-family="sans-serif" font-size="12" lengthAdjust="spacing" textLength="151" x="627.6875" y="1700.8867">Weryfikuje rekomendacje AI</text><polygon fill="#F1F1F1" points="630.1875,1745.5234,776.1875,1745.5234,788.1875,1757.5234,776.1875,1769.5234,630.1875,1769.5234,618.1875,1757.5234,630.1875,1745.5234" style="stroke:#181818;stroke-width:0.5;"/><text fill="#000000" font-family="sans-serif" font-size="11" lengthAdjust="spacing" textLength="146" x="630.1875" y="1762.0244">Czy ranking wymaga korekty?</text><text fill="#000000" font-family="sans-serif" font-size="11" lengthAdjust="spacing" textLength="14" x="604.1875" y="1755.1064">tak</text><text fill="#000000" font-family="sans-serif" font-size="11" lengthAdjust="spacing" textLength="14" x="788.1875" y="1755.1064">nie</text><rect fill="none" height="84.7031" style="stroke:#000000;stroke-width:1.5;" width="278" x="433.4375" y="1779.5234"/><path d="M498.4375,1779.5234 L498.4375,1790.1328 L488.4375,1800.1328 L433.4375,1800.1328 " fill="none" style="stroke:#000000;stroke-width:1.5;"/><text fill="#000000" font-family="sans-serif" font-size="14" lengthAdjust="spacing" textLength="55" x="436.4375" y="1795.0566">Rekruter</text><rect fill="#F1F1F1" height="35.0938" rx="12.5" ry="12.5" style="stroke:#181818;stroke-width:0.5;" width="258" x="443.4375" y="1817.1328"/><text fill="#000000" font-family="sans-serif" font-size="12" lengthAdjust="spacing" textLength="238" x="453.4375" y="1839.5898">Koryguje wybor kandydatow lub komentarze</text><rect fill="none" height="84.7031" style="stroke:#000000;stroke-width:1.5;" width="142" x="501.4375" y="1874.2266"/><path d="M557.4375,1874.2266 L557.4375,1884.8359 L547.4375,1894.8359 L501.4375,1894.8359 " fill="none" style="stroke:#000000;stroke-width:1.5;"/><text fill="#000000" font-family="sans-serif" font-size="14" lengthAdjust="spacing" textLength="46" x="504.4375" y="1889.7598">System</text><rect fill="#F1F1F1" height="35.0938" rx="12.5" ry="12.5" style="stroke:#181818;stroke-width:0.5;" width="122" x="511.4375" y="1911.8359"/><text fill="#000000" font-family="sans-serif" font-size="12" lengthAdjust="spacing" textLength="102" x="521.4375" y="1934.293">Aktualizuje ranking</text><rect fill="none" height="84.7031" style="stroke:#000000;stroke-width:1.5;" width="205" x="731.4375" y="1779.5234"/><path d="M796.4375,1779.5234 L796.4375,1790.1328 L786.4375,1800.1328 L731.4375,1800.1328 " fill="none" style="stroke:#000000;stroke-width:1.5;"/><text fill="#000000" font-family="sans-serif" font-size="14" lengthAdjust="spacing" textLength="55" x="734.4375" y="1795.0566">Rekruter</text><rect fill="#F1F1F1" height="35.0938" rx="12.5" ry="12.5" style="stroke:#181818;stroke-width:0.5;" width="185" x="741.4375" y="1817.1328"/><text fill="#000000" font-family="sans-serif" font-size="12" lengthAdjust="spacing" textLength="165" x="751.4375" y="1839.5898">Pozostawia ranking bez zmian</text><polygon fill="#F1F1F1" points="703.1875,1964.9297,715.1875,1976.9297,703.1875,1988.9297,691.1875,1976.9297,703.1875,1964.9297" style="stroke:#181818;stroke-width:0.5;"/><rect fill="none" height="84.7031" style="stroke:#000000;stroke-width:1.5;" width="314" x="546.1875" y="1998.9297"/><path d="M611.1875,1998.9297 L611.1875,2009.5391 L601.1875,2019.5391 L546.1875,2019.5391 " fill="none" style="stroke:#000000;stroke-width:1.5;"/><text fill="#000000" font-family="sans-serif" font-size="14" lengthAdjust="spacing" textLength="55" x="549.1875" y="2014.4629">Rekruter</text><rect fill="#F1F1F1" height="35.0938" rx="12.5" ry="12.5" style="stroke:#181818;stroke-width:0.5;" width="294" x="556.1875" y="2036.5391"/><text fill="#000000" font-family="sans-serif" font-size="12" lengthAdjust="spacing" textLength="274" x="566.1875" y="2058.9961">Zatwierdza ranking do utworzenia listy kandydatow</text><rect fill="none" height="92.7031" style="stroke:#000000;stroke-width:1.5;" width="236" x="1113" y="367.1094"/><path d="M1169,367.1094 L1169,377.7188 L1159,387.7188 L1113,387.7188 " fill="none" style="stroke:#000000;stroke-width:1.5;"/><text fill="#000000" font-family="sans-serif" font-size="14" lengthAdjust="spacing" textLength="46" x="1116" y="382.6426">System</text><rect fill="#F1F1F1" height="35.0938" rx="12.5" ry="12.5" style="stroke:#181818;stroke-width:0.5;" width="216" x="1123" y="404.7188"/><text fill="#000000" font-family="sans-serif" font-size="12" lengthAdjust="spacing" textLength="196" x="1133" y="427.1758">Informuje rekrutera o braku aplikacji</text><polygon fill="#F1F1F1" points="970.0938,2089.6328,982.0938,2101.6328,970.0938,2113.6328,958.0938,2101.6328,970.0938,2089.6328" style="stroke:#181818;stroke-width:0.5;"/><ellipse cx="970.0938" cy="2144.6328" fill="none" rx="11" ry="11" style="stroke:#222222;stroke-width:1.0;"/><ellipse cx="970.0938" cy="2144.6328" fill="#222222" rx="6" ry="6" style="stroke:#222222;stroke-width:1.0;"/><line style="stroke:#181818;stroke-width:1.0;" x1="970.0938" x2="970.0938" y1="151.3125" y2="171.3125"/><polygon fill="#181818" points="966.0938,161.3125,970.0938,171.3125,974.0938,161.3125,970.0938,165.3125" style="stroke:#181818;stroke-width:1.0;"/><line style="stroke:#181818;stroke-width:1.0;" x1="970.0938" x2="970.0938" y1="68.6094" y2="116.2188"/><polygon fill="#181818" points="966.0938,106.2188,970.0938,116.2188,974.0938,106.2188,970.0938,110.2188" style="stroke:#181818;stroke-width:1.0;"/><line style="stroke:#181818;stroke-width:1.0;" x1="970.0938" x2="970.0938" y1="206.4063" y2="266.0156"/><polygon fill="#181818" points="966.0938,256.0156,970.0938,266.0156,974.0938,256.0156,970.0938,260.0156" style="stroke:#181818;stroke-width:1.0;"/><line style="stroke:#181818;stroke-width:1.0;" x1="703.1875" x2="703.1875" y1="501.6484" y2="521.6484"/><polygon fill="#181818" points="699.1875,511.6484,703.1875,521.6484,707.1875,511.6484,703.1875,515.6484" style="stroke:#181818;stroke-width:1.0;"/><line style="stroke:#181818;stroke-width:1.0;" x1="464.375" x2="464.375" y1="695.4453" y2="722.4453"/><polygon fill="#181818" points="460.375,712.4453,464.375,722.4453,468.375,712.4453,464.375,716.4453" style="stroke:#181818;stroke-width:1.0;"/><line style="stroke:#181818;stroke-width:1.0;" x1="279.75" x2="279.75" y1="896.2422" y2="916.2422"/><polygon fill="#181818" points="275.75,906.2422,279.75,916.2422,283.75,906.2422,279.75,910.2422" style="stroke:#181818;stroke-width:1.0;"/><line style="stroke:#181818;stroke-width:1.0;" x1="279.75" x2="279.75" y1="951.3359" y2="978.3359"/><polygon fill="#181818" points="275.75,968.3359,279.75,978.3359,283.75,968.3359,279.75,972.3359" style="stroke:#181818;stroke-width:1.0;"/><line style="stroke:#181818;stroke-width:1.0;" x1="279.75" x2="279.75" y1="1013.4297" y2="1073.0391"/><polygon fill="#181818" points="275.75,1063.0391,279.75,1073.0391,283.75,1063.0391,279.75,1067.0391" style="stroke:#181818;stroke-width:1.0;"/><line style="stroke:#181818;stroke-width:1.0;" x1="189.25" x2="161.5" y1="1152.1328" y2="1152.1328"/><line style="stroke:#181818;stroke-width:1.0;" x1="161.5" x2="161.5" y1="1152.1328" y2="1211.7422"/><polygon fill="#181818" points="157.5,1201.7422,161.5,1211.7422,165.5,1201.7422,161.5,1205.7422" style="stroke:#181818;stroke-width:1.0;"/><line style="stroke:#181818;stroke-width:1.0;" x1="370.25" x2="398" y1="1152.1328" y2="1152.1328"/><line style="stroke:#181818;stroke-width:1.0;" x1="398" x2="398" y1="1152.1328" y2="1211.7422"/><polygon fill="#181818" points="394,1201.7422,398,1211.7422,402,1201.7422,398,1205.7422" style="stroke:#181818;stroke-width:1.0;"/><line style="stroke:#181818;stroke-width:1.0;" x1="161.5" x2="161.5" y1="1246.8359" y2="1276.8359"/><line style="stroke:#181818;stroke-width:1.0;" x1="161.5" x2="267.75" y1="1276.8359" y2="1276.8359"/><polygon fill="#181818" points="257.75,1272.8359,267.75,1276.8359,257.75,1280.8359,261.75,1276.8359" style="stroke:#181818;stroke-width:1.0;"/><line style="stroke:#181818;stroke-width:1.0;" x1="398" x2="398" y1="1246.8359" y2="1276.8359"/><line style="stroke:#181818;stroke-width:1.0;" x1="398" x2="291.75" y1="1276.8359" y2="1276.8359"/><polygon fill="#181818" points="301.75,1272.8359,291.75,1276.8359,301.75,1280.8359,297.75,1276.8359" style="stroke:#181818;stroke-width:1.0;"/><line style="stroke:#181818;stroke-width:1.0;" x1="279.75" x2="279.75" y1="1108.1328" y2="1140.1328"/><polygon fill="#181818" points="275.75,1130.1328,279.75,1140.1328,283.75,1130.1328,279.75,1134.1328" style="stroke:#181818;stroke-width:1.0;"/><line style="stroke:#181818;stroke-width:1.0;" x1="649" x2="649" y1="896.2422" y2="916.2422"/><polygon fill="#181818" points="645,906.2422,649,916.2422,653,906.2422,649,910.2422" style="stroke:#181818;stroke-width:1.0;"/><line style="stroke:#181818;stroke-width:1.0;" x1="381.875" x2="279.75" y1="801.5391" y2="801.5391"/><line style="stroke:#181818;stroke-width:1.0;" x1="279.75" x2="279.75" y1="801.5391" y2="861.1484"/><polygon fill="#181818" points="275.75,851.1484,279.75,861.1484,283.75,851.1484,279.75,855.1484" style="stroke:#181818;stroke-width:1.0;"/><line style="stroke:#181818;stroke-width:1.0;" x1="546.875" x2="649" y1="801.5391" y2="801.5391"/><line style="stroke:#181818;stroke-width:1.0;" x1="649" x2="649" y1="801.5391" y2="861.1484"/><polygon fill="#181818" points="645,851.1484,649,861.1484,653,851.1484,649,855.1484" style="stroke:#181818;stroke-width:1.0;"/><line style="stroke:#181818;stroke-width:1.0;" x1="279.75" x2="279.75" y1="1288.8359" y2="1306.8359"/><line style="stroke:#181818;stroke-width:1.0;" x1="279.75" x2="452.375" y1="1306.8359" y2="1306.8359"/><polygon fill="#181818" points="442.375,1302.8359,452.375,1306.8359,442.375,1310.8359,446.375,1306.8359" style="stroke:#181818;stroke-width:1.0;"/><line style="stroke:#181818;stroke-width:1.0;" x1="649" x2="649" y1="951.3359" y2="1306.8359"/><line style="stroke:#181818;stroke-width:1.0;" x1="649" x2="476.375" y1="1306.8359" y2="1306.8359"/><polygon fill="#181818" points="486.375,1302.8359,476.375,1306.8359,486.375,1310.8359,482.375,1306.8359" style="stroke:#181818;stroke-width:1.0;"/><line style="stroke:#181818;stroke-width:1.0;" x1="464.375" x2="464.375" y1="757.5391" y2="789.5391"/><polygon fill="#181818" points="460.375,779.5391,464.375,789.5391,468.375,779.5391,464.375,783.5391" style="stroke:#181818;stroke-width:1.0;"/><line style="stroke:#181818;stroke-width:1.0;" x1="615.1875" x2="464.375" y1="600.7422" y2="600.7422"/><line style="stroke:#181818;stroke-width:1.0;" x1="464.375" x2="464.375" y1="600.7422" y2="660.3516"/><polygon fill="#181818" points="460.375,650.3516,464.375,660.3516,468.375,650.3516,464.375,654.3516" style="stroke:#181818;stroke-width:1.0;"/><line style="stroke:#181818;stroke-width:1.0;" x1="791.1875" x2="942" y1="600.7422" y2="600.7422"/><line style="stroke:#181818;stroke-width:1.0;" x1="942" x2="942" y1="600.7422" y2="660.3516"/><polygon fill="#181818" points="938,650.3516,942,660.3516,946,650.3516,942,654.3516" style="stroke:#181818;stroke-width:1.0;"/><line style="stroke:#181818;stroke-width:1.0;" x1="464.375" x2="464.375" y1="1318.8359" y2="1336.8359"/><line style="stroke:#181818;stroke-width:1.0;" x1="464.375" x2="691.1875" y1="1336.8359" y2="1336.8359"/><polygon fill="#181818" points="681.1875,1332.8359,691.1875,1336.8359,681.1875,1340.8359,685.1875,1336.8359" style="stroke:#181818;stroke-width:1.0;"/><line style="stroke:#181818;stroke-width:1.0;" x1="942" x2="942" y1="695.4453" y2="1336.8359"/><line style="stroke:#181818;stroke-width:1.0;" x1="942" x2="715.1875" y1="1336.8359" y2="1336.8359"/><polygon fill="#181818" points="725.1875,1332.8359,715.1875,1336.8359,725.1875,1340.8359,721.1875,1336.8359" style="stroke:#181818;stroke-width:1.0;"/><line style="stroke:#181818;stroke-width:1.0;" x1="703.1875" x2="703.1875" y1="556.7422" y2="588.7422"/><polygon fill="#181818" points="699.1875,578.7422,703.1875,588.7422,707.1875,578.7422,703.1875,582.7422" style="stroke:#181818;stroke-width:1.0;"/><line style="stroke:#181818;stroke-width:1.0;" x1="703.1875" x2="703.1875" y1="391.1094" y2="466.5547"/><polygon fill="#181818" points="699.1875,456.5547,703.1875,466.5547,707.1875,456.5547,703.1875,460.5547" style="stroke:#181818;stroke-width:1.0;"/><line style="stroke:#181818;stroke-width:1.0;" x1="703.1875" x2="703.1875" y1="1348.8359" y2="1358.8359"/><line style="stroke:#181818;stroke-width:1.0;" x1="703.1875" x2="1099" y1="1358.8359" y2="1358.8359"/><polygon fill="#181818" points="1095,888.9727,1099,878.9727,1103,888.9727,1099,884.9727" style="stroke:#181818;stroke-width:1.0;"/><line style="stroke:#181818;stroke-width:1.0;" x1="1099" x2="1099" y1="379.1094" y2="1358.8359"/><line style="stroke:#181818;stroke-width:1.0;" x1="1099" x2="768.1875" y1="379.1094" y2="379.1094"/><polygon fill="#181818" points="778.1875,375.1094,768.1875,379.1094,778.1875,383.1094,774.1875,379.1094" style="stroke:#181818;stroke-width:1.0;"/><line style="stroke:#181818;stroke-width:1.0;" x1="638.1875" x2="24" y1="379.1094" y2="379.1094"/><polygon fill="#181818" points="20,874.9727,24,884.9727,28,874.9727,24,878.9727" style="stroke:#181818;stroke-width:1.0;"/><line style="stroke:#181818;stroke-width:1.0;" x1="24" x2="24" y1="379.1094" y2="1370.8359"/><line style="stroke:#181818;stroke-width:1.0;" x1="24" x2="703.1875" y1="1370.8359" y2="1370.8359"/><line style="stroke:#181818;stroke-width:1.0;" x1="703.1875" x2="703.1875" y1="1370.8359" y2="1418.4453"/><polygon fill="#181818" points="699.1875,1408.4453,703.1875,1418.4453,707.1875,1408.4453,703.1875,1412.4453" style="stroke:#181818;stroke-width:1.0;"/><line style="stroke:#181818;stroke-width:1.0;" x1="703.1875" x2="703.1875" y1="1453.5391" y2="1473.5391"/><polygon fill="#181818" points="699.1875,1463.5391,703.1875,1473.5391,707.1875,1463.5391,703.1875,1467.5391" style="stroke:#181818;stroke-width:1.0;"/><line style="stroke:#181818;stroke-width:1.0;" x1="703.1875" x2="703.1875" y1="1508.6328" y2="1528.6328"/><polygon fill="#181818" points="699.1875,1518.6328,703.1875,1528.6328,707.1875,1518.6328,703.1875,1522.6328" style="stroke:#181818;stroke-width:1.0;"/><line style="stroke:#181818;stroke-width:1.0;" x1="703.1875" x2="703.1875" y1="1658.4297" y2="1678.4297"/><polygon fill="#181818" points="699.1875,1668.4297,703.1875,1678.4297,707.1875,1668.4297,703.1875,1672.4297" style="stroke:#181818;stroke-width:1.0;"/><line style="stroke:#181818;stroke-width:1.0;" x1="703.1875" x2="703.1875" y1="1563.7266" y2="1623.3359"/><polygon fill="#181818" points="699.1875,1613.3359,703.1875,1623.3359,707.1875,1613.3359,703.1875,1617.3359" style="stroke:#181818;stroke-width:1.0;"/><line style="stroke:#181818;stroke-width:1.0;" x1="572.4375" x2="572.4375" y1="1852.2266" y2="1911.8359"/><polygon fill="#181818" points="568.4375,1901.8359,572.4375,1911.8359,576.4375,1901.8359,572.4375,1905.8359" style="stroke:#181818;stroke-width:1.0;"/><line style="stroke:#181818;stroke-width:1.0;" x1="618.1875" x2="572.4375" y1="1757.5234" y2="1757.5234"/><line style="stroke:#181818;stroke-width:1.0;" x1="572.4375" x2="572.4375" y1="1757.5234" y2="1817.1328"/><polygon fill="#181818" points="568.4375,1807.1328,572.4375,1817.1328,576.4375,1807.1328,572.4375,1811.1328" style="stroke:#181818;stroke-width:1.0;"/><line style="stroke:#181818;stroke-width:1.0;" x1="788.1875" x2="833.9375" y1="1757.5234" y2="1757.5234"/><line style="stroke:#181818;stroke-width:1.0;" x1="833.9375" x2="833.9375" y1="1757.5234" y2="1817.1328"/><polygon fill="#181818" points="829.9375,1807.1328,833.9375,1817.1328,837.9375,1807.1328,833.9375,1811.1328" style="stroke:#181818;stroke-width:1.0;"/><line style="stroke:#181818;stroke-width:1.0;" x1="572.4375" x2="572.4375" y1="1946.9297" y2="1976.9297"/><line style="stroke:#181818;stroke-width:1.0;" x1="572.4375" x2="691.1875" y1="1976.9297" y2="1976.9297"/><polygon fill="#181818" points="681.1875,1972.9297,691.1875,1976.9297,681.1875,1980.9297,685.1875,1976.9297" style="stroke:#181818;stroke-width:1.0;"/><line style="stroke:#181818;stroke-width:1.0;" x1="833.9375" x2="833.9375" y1="1852.2266" y2="1976.9297"/><line style="stroke:#181818;stroke-width:1.0;" x1="833.9375" x2="715.1875" y1="1976.9297" y2="1976.9297"/><polygon fill="#181818" points="725.1875,1972.9297,715.1875,1976.9297,725.1875,1980.9297,721.1875,1976.9297" style="stroke:#181818;stroke-width:1.0;"/><line style="stroke:#181818;stroke-width:1.0;" x1="703.1875" x2="703.1875" y1="1713.5234" y2="1745.5234"/><polygon fill="#181818" points="699.1875,1735.5234,703.1875,1745.5234,707.1875,1735.5234,703.1875,1739.5234" style="stroke:#181818;stroke-width:1.0;"/><line style="stroke:#181818;stroke-width:1.0;" x1="703.1875" x2="703.1875" y1="1988.9297" y2="2036.5391"/><polygon fill="#181818" points="699.1875,2026.5391,703.1875,2036.5391,707.1875,2026.5391,703.1875,2030.5391" style="stroke:#181818;stroke-width:1.0;"/><line style="stroke:#181818;stroke-width:1.0;" x1="879.5938" x2="703.1875" y1="345.1094" y2="345.1094"/><line style="stroke:#181818;stroke-width:1.0;" x1="703.1875" x2="703.1875" y1="345.1094" y2="367.1094"/><polygon fill="#181818" points="699.1875,357.1094,703.1875,367.1094,707.1875,357.1094,703.1875,361.1094" style="stroke:#181818;stroke-width:1.0;"/><line style="stroke:#181818;stroke-width:1.0;" x1="1060.5938" x2="1231" y1="345.1094" y2="345.1094"/><line style="stroke:#181818;stroke-width:1.0;" x1="1231" x2="1231" y1="345.1094" y2="404.7188"/><polygon fill="#181818" points="1227,394.7188,1231,404.7188,1235,394.7188,1231,398.7188" style="stroke:#181818;stroke-width:1.0;"/><line style="stroke:#181818;stroke-width:1.0;" x1="703.1875" x2="703.1875" y1="2071.6328" y2="2101.6328"/><line style="stroke:#181818;stroke-width:1.0;" x1="703.1875" x2="958.0938" y1="2101.6328" y2="2101.6328"/><polygon fill="#181818" points="948.0938,2097.6328,958.0938,2101.6328,948.0938,2105.6328,952.0938,2101.6328" style="stroke:#181818;stroke-width:1.0;"/><line style="stroke:#181818;stroke-width:1.0;" x1="1231" x2="1231" y1="439.8125" y2="2101.6328"/><line style="stroke:#181818;stroke-width:1.0;" x1="1231" x2="982.0938" y1="2101.6328" y2="2101.6328"/><polygon fill="#181818" points="992.0938,2097.6328,982.0938,2101.6328,992.0938,2105.6328,988.0938,2101.6328" style="stroke:#181818;stroke-width:1.0;"/><line style="stroke:#181818;stroke-width:1.0;" x1="970.0938" x2="970.0938" y1="301.1094" y2="333.1094"/><polygon fill="#181818" points="966.0938,323.1094,970.0938,333.1094,974.0938,323.1094,970.0938,327.1094" style="stroke:#181818;stroke-width:1.0;"/><line style="stroke:#181818;stroke-width:1.0;" x1="970.0938" x2="970.0938" y1="2113.6328" y2="2133.6328"/><polygon fill="#181818" points="966.0938,2123.6328,970.0938,2133.6328,974.0938,2123.6328,970.0938,2127.6328" style="stroke:#181818;stroke-width:1.0;"/><!--SRC=[fLNRRjim37ttLn1zIe7j1vg7eUjUkc5OiNOhq3V6bXF6icZ8CZnvwB-FaYznxWyBWZY9U3ayFAGSEQtW2-7QOWbOEDyQhbE2Zu06DNK811PDGMOD3x-XWwRpAQaIxX-Jf9Q_AmoUzGOpReDHZhfMivDCvTXezwB-k7jDQrCguo2L3sKbW4FhaaGi7JbY0pS_LM4RERk1lmd0tQjVaR88d2lh5DXuYgdV6bo6yr-sIJTO4WvmbO1S9kzx8PzzxLGv17pYUS0FK5WlsSI_LbeLwPQaNgmq5PXkLOn4EImUEWzKEqDgYxjZo7X8wp_TWjie0mk7nQtaQJSal2w-gjf1mLe9tiaFnPZgoHJW3DRmcl0AzmMQp6VeOkNny4UMTjurWeJ0i2q3bF3BMLMdaObW9ZM4nrY7HEBeXuQXuifYAtKT5d05boJ_t6GXLsKv9tqCJYoUG-nC99InU5T1MD3KkbcJg6Uq6z3jy4KB50lO1lO6Npm5S0_YTyuQBMvpa950owsP8UscdfVKoy0lvmwlNbCge5b46bfSOSqj6i8zgvUMhO0LGR8eEejo81aEh34JEkMzCvzAl4AfX7t3Yke0jlM6Yb5T9qEDV5NS4PTGgM5o8sk6P09FKtOLH11MPp1mqACGcRVA-ZogbuOX557E2NcVlYkPVrW80V-JSei5mveTj_vC5fDHdfpDU8tdCTkfMPO2qywexV9aOqhkDBL1oXKRMNdIQZpLfqEOHo0lJzT9W3smDGy3t4mZFYOSqybps40nON8XszqpMpSfZgJJcSnVLBy_Ll-a- -5A6CUUMyWqxetJZhB1EFpzVe1bVzs7SRMTMclCS4eXGngvY4HRt_bYnFBQYpAccCzXlrnYgd58nc2jBr6MIy7YuFpnW5o09Wc_iVNhdgiLstdnkbb1H20NMgV6lNjjkTyNhXbtzeoatlL0C9UHFN4dUn9Rsl6sKXrqSZEQMSWeZoiTU4CdghPXRu-XH7gD2usFFT1o4_fPyJtPUt3Fg-tHv79H3IthrmWmh2mMpQHr6YBsQ6l7LV8F]--></g></svg>